<svg xmlns="http://www.w3.org/2000/svg" width="32" height="32" viewBox="0 0 32 32" fill="none">
  <path d="M28.2193 4.35332H22.8193V3.77999C22.8312 3.62699 22.8113 3.47319 22.7609 3.32824C22.7105 3.18329 22.6307 3.05033 22.5265 2.9377C22.4222 2.82507 22.2958 2.73521 22.1552 2.67375C22.0146 2.61229 21.8628 2.58057 21.7093 2.58057C21.5559 2.58057 21.4041 2.61229 21.2635 2.67375C21.1229 2.73521 20.9965 2.82507 20.8922 2.9377C20.788 3.05033 20.7082 3.18329 20.6578 3.32824C20.6074 3.47319 20.5875 3.62699 20.5993 3.77999V4.35332H11.586V3.77999C11.5979 3.62699 11.578 3.47319 11.5276 3.32824C11.4772 3.18329 11.3974 3.05033 11.2931 2.9377C11.1889 2.82507 11.0625 2.73521 10.9219 2.67375C10.7813 2.61229 10.6295 2.58057 10.476 2.58057C10.3226 2.58057 10.1708 2.61229 10.0301 2.67375C9.88952 2.73521 9.76313 2.82507 9.6589 2.9377C9.55467 3.05033 9.47484 3.18329 9.42444 3.32824C9.37404 3.47319 9.35415 3.62699 9.36602 3.77999V4.35332H3.77935C3.48407 4.35332 3.20089 4.47062 2.9921 4.67941C2.78331 4.8882 2.66602 5.17138 2.66602 5.46665V28.22C2.66602 28.5153 2.78331 28.7984 2.9921 29.0072C3.20089 29.216 3.48407 29.3333 3.77935 29.3333H28.2193C28.5146 29.3333 28.7978 29.216 29.0066 29.0072C29.2154 28.7984 29.3327 28.5153 29.3327 28.22V5.46665C29.3327 5.17138 29.2154 4.8882 29.0066 4.67941C28.7978 4.47062 28.5146 4.35332 28.2193 4.35332ZM27.1127 27.1133H4.88602V13.2467H27.1127V27.1133ZM27.1127 11.02H4.88602V6.57999H9.36602V7.14665C9.35415 7.29965 9.37404 7.45345 9.42444 7.5984C9.47484 7.74335 9.55467 7.87631 9.6589 7.98894C9.76313 8.10157 9.88952 8.19143 10.0301 8.25289C10.1708 8.31435 10.3226 8.34608 10.476 8.34608C10.6295 8.34608 10.7813 8.31435 10.9219 8.25289C11.0625 8.19143 11.1889 8.10157 11.2931 7.98894C11.3974 7.87631 11.4772 7.74335 11.5276 7.5984C11.578 7.45345 11.5979 7.29965 11.586 7.14665V6.57999H20.5993V7.14665C20.5875 7.29965 20.6074 7.45345 20.6578 7.5984C20.7082 7.74335 20.788 7.87631 20.8922 7.98894C20.9965 8.10157 21.1229 8.19143 21.2635 8.25289C21.4041 8.31435 21.5559 8.34608 21.7093 8.34608C21.8628 8.34608 22.0146 8.31435 22.1552 8.25289C22.2958 8.19143 22.4222 8.10157 22.5265 7.98894C22.6307 7.87631 22.7105 7.74335 22.7609 7.5984C22.8113 7.45345 22.8312 7.29965 22.8193 7.14665V6.57999H27.1127V11.02Z" fill="#21BF80"/>
  <path d="M10.5271 18.8998H21.4737C21.7725 18.8998 22.0591 18.7811 22.2704 18.5698C22.4817 18.3585 22.6004 18.072 22.6004 17.7731C22.6004 17.4743 22.4817 17.1878 22.2704 16.9765C22.0591 16.7652 21.7725 16.6465 21.4737 16.6465H10.5271C10.2282 16.6465 9.94167 16.7652 9.73038 16.9765C9.51909 17.1878 9.40039 17.4743 9.40039 17.7731C9.40039 18.072 9.51909 18.3585 9.73038 18.5698C9.94167 18.7811 10.2282 18.8998 10.5271 18.8998ZM16.6671 21.4531H10.6004C10.3016 21.4531 10.015 21.5719 9.80372 21.7831C9.59243 21.9944 9.47372 22.281 9.47372 22.5798C9.47372 22.8786 9.59243 23.1652 9.80372 23.3765C10.015 23.5878 10.3016 23.7065 10.6004 23.7065H16.6671C16.9659 23.7065 17.2524 23.5878 17.4637 23.3765C17.675 23.1652 17.7937 22.8786 17.7937 22.5798C17.7937 22.281 17.675 21.9944 17.4637 21.7831C17.2524 21.5719 16.9659 21.4531 16.6671 21.4531Z" fill="#21BF80"/>
</svg>