<svg xmlns="http://www.w3.org/2000/svg" width="32" height="32" viewBox="0 0 32 32" fill="none">
  <path d="M9.94238 20.8631L13.2824 30.4841L30.7811 1.0929L9.94238 20.8631Z" fill="#1C6AAD"/>
  <path d="M13.2833 31.0525C13.1652 31.0526 13.05 31.0158 12.9538 30.9474C12.8575 30.8789 12.785 30.7821 12.7463 30.6705L9.40642 21.0495C9.37059 20.9463 9.36528 20.8349 9.39113 20.7287C9.41698 20.6225 9.4729 20.526 9.55218 20.4508L30.3911 0.680493C30.4906 0.585906 30.621 0.530561 30.7582 0.52469C30.8954 0.518819 31.0301 0.56282 31.1373 0.648557C31.2446 0.734294 31.3172 0.855968 31.3417 0.991078C31.3661 1.12619 31.3409 1.2656 31.2705 1.38353L13.7716 30.7749C13.7213 30.8595 13.6498 30.9295 13.5642 30.9782C13.4786 31.0269 13.3818 31.0525 13.2833 31.0525ZM10.6005 21.0231L13.4196 29.144L28.19 4.33561L10.6005 21.0231Z" fill="#00335F"/>
  <path d="M1.60254 17.1559L30.7813 1.0929L9.94256 20.8631L1.60254 17.1559Z" fill="#5D9FD9"/>
  <path d="M9.94234 21.4315C9.86428 21.4315 9.78572 21.4155 9.71158 21.3825L1.37168 17.6754C1.27497 17.6324 1.19218 17.5632 1.13264 17.4757C1.07311 17.3882 1.03918 17.2859 1.03469 17.1801C1.03021 17.0743 1.05534 16.9694 1.10724 16.8772C1.15915 16.7849 1.23576 16.7089 1.32848 16.6578L30.5071 0.595057C30.5657 0.539516 30.6355 0.497098 30.7118 0.470627C30.788 0.444155 30.8691 0.434238 30.9495 0.441535C31.0299 0.448832 31.1078 0.473177 31.1781 0.512947C31.2484 0.552717 31.3093 0.607001 31.357 0.672183C31.4046 0.737365 31.4378 0.81195 31.4544 0.890971C31.471 0.969992 31.4705 1.05164 31.4531 1.13047C31.4356 1.2093 31.4016 1.2835 31.3532 1.34815C31.3048 1.41279 31.2432 1.46638 31.1725 1.50536L10.3338 21.2755C10.2281 21.3758 10.088 21.4316 9.94234 21.4315ZM2.87968 17.1017L9.82664 20.1895L27.1846 3.72182L2.87968 17.1017Z" fill="#00335F"/>
  <path d="M30.7815 1.0929L13.29 22.2392L26.7116 27.4503L30.7815 1.0929Z" fill="#5D9FD9"/>
  <path d="M26.7119 28.0189C26.6415 28.0189 26.5717 28.0059 26.5061 27.9804L13.0846 22.7692C13.0006 22.7367 12.9256 22.6846 12.8657 22.6174C12.8057 22.5502 12.7627 22.4697 12.74 22.3825C12.7173 22.2954 12.7157 22.2041 12.7352 22.1162C12.7548 22.0283 12.795 21.9463 12.8524 21.8769L30.344 0.730754C30.4234 0.635005 30.532 0.567919 30.6531 0.539775C30.7743 0.511631 30.9013 0.523981 31.0147 0.574933C31.1282 0.625885 31.2218 0.712629 31.2813 0.821875C31.3407 0.931121 31.3627 1.05684 31.3439 1.17978L27.2737 27.5375C27.2607 27.6215 27.229 27.7015 27.181 27.7717C27.133 27.8419 27.0699 27.9004 26.9963 27.943C26.9098 27.9927 26.8117 28.0189 26.7119 28.0189ZM14.2303 21.9945L26.2581 26.6648L29.9056 3.04435L14.2303 21.9945Z" fill="#00335F"/>
  <path d="M13.2901 31.0526C13.1393 31.0526 12.9948 30.9927 12.8882 30.8861C12.7816 30.7795 12.7217 30.6349 12.7217 30.4842V22.2393C12.7217 22.0885 12.7816 21.944 12.8882 21.8374C12.9948 21.7308 13.1393 21.6709 13.2901 21.6709C13.4408 21.6709 13.5854 21.7308 13.692 21.8374C13.7986 21.944 13.8585 22.0885 13.8585 22.2393V30.4842C13.8585 30.6349 13.7986 30.7795 13.692 30.8861C13.5854 30.9927 13.4408 31.0526 13.2901 31.0526Z" fill="#00335F"/>
</svg>